#!OML:ASF E:\Style6\Style6.ASF
:FULLY-SPECIFIED
:DEGREES
2225
root 0.174638 18.2368 0.467711 9.59292 -2.96504 -2.74513
lowerback -6.29296 -0.10249 2.14415
upperback -6.0496 -0.183999 2.58536
thorax -2.71964 -0.117105 1.45836
lowerneck -5.82885 0.0960855 3.48159
upperneck 16.5759 0.784074 -6.62754
head 5.99391 0.102998 -2.62675
rclavicle -4.02539e-015 1.39149e-014
rhumerus 30.229 10.2652 -63.4288
rradius 68.796
rwrist -36.2122
rhand -9.69208 -13.341
rfingers 7.12502
rthumb 16.2802 -42.6775
lclavicle -4.02539e-015 1.39149e-014
lhumerus 30.4599 -16.7819 59.7133
lradius 67.2232
lwrist 51.6699
lhand -13.4966 40.3561
lfingers 7.12502
lthumb 12.6145 69.9552
rfemur -10.634 13.8727 20.6539
rtibia 10.9689
rfoot -4.00046 -16.9275
rtoes -18.3882
lfemur -14.3456 -16.5453 -14.2579
ltibia 20.5032
lfoot -7.74597 20.7464
ltoes -13.3378
2226
root 0.175239 18.2361 0.468463 9.58057 -3.00634 -2.8075
lowerback -6.24921 -0.0870736 2.19952
upperback -6.0777 -0.162948 2.58659
thorax -2.77387 -0.108841 1.42983
lowerneck -5.74109 0.0701197 3.49842
upperneck 16.4807 0.743262 -6.62495
head 5.94648 0.0867611 -2.62989
rclavicle -3.37934e-015 2.66371e-014
rhumerus 30.1466 10.2853 -63.4369
rradius 68.7582
rwrist -36.1875
rhand -9.67266 -13.3111
rfingers 7.12502
rthumb 16.2988 -42.6461
lclavicle -3.37934e-015 2.66371e-014
lhumerus 30.3933 -16.8361 59.6781
lradius 67.1939
lwrist 51.6672
lhand -13.4454 40.2341
lfingers 7.12502
lthumb 12.6638 69.8302
rfemur -10.6137 13.8756 20.7206
rtibia 10.9526
rfoot -3.94362 -16.8775
rtoes -18.7075
lfemur -14.331 -16.4998 -14.2058
ltibia 20.5314
lfoot -7.68825 20.7384
ltoes -13.5475
2227
root 0.175453 18.2364 0.469711 9.57717 -3.01338 -2.87104
lowerback -6.29121 -0.0834147 2.26018
upperback -6.05797 -0.162733 2.59055
thorax -2.73028 -0.110599 1.39966
lowerneck -5.73014 0.0598347 3.55215
upperneck 16.4311 0.728815 -6.67576
head 5.92828 0.0799722 -2.65538
rclavicle -1.30204e-014 3.02153e-014
rhumerus 30.137 10.2564 -63.4575
rradius 68.6811
rwrist -36.1819
rhand -9.73279 -12.9062
rfingers 7.12502
rthumb 16.241 -42.2459
lclavicle -1.30204e-014 3.02153e-014
lhumerus 30.4109 -16.857 59.5961
lradius 67.1593
lwrist 51.6463
lhand -13.3156 40.2436
lfingers 7.12502
lthumb 12.7889 69.8319
rfemur -10.5658 13.8923 20.7987
rtibia 10.8883
rfoot -3.77554 -16.8947
rtoes -19.6322
lfemur -14.3451 -16.4588 -14.1429
ltibia 20.5859
lfoot -7.7128 20.7023
ltoes -13.6534
2228
root 0.176451 18.2361 0.471274 9.54615 -3.04551 -2.86989
lowerback -6.34419 -0.0756722 2.25824
upperback -6.01985 -0.155894 2.58776
thorax -2.66104 -0.106753 1.39762
lowerneck -5.76637 0.0505646 3.53341
upperneck 16.4806 0.71801 -6.66453
head 5.94951 0.073265 -2.6502
rclavicle -1.2424e-015 -8.74653e-015
rhumerus 30.1476 10.247 -63.4136
rradius 68.6312
rwrist -36.2491
rhand -9.81678 -12.1942
rfingers 7.12502
rthumb 16.1601 -41.5405
lclavicle -1.2424e-015 -8.74653e-015
lhumerus 30.44 -16.8608 59.5532
lradius 67.1548
lwrist 51.6241
lhand -13.2594 40.2988
lfingers 7.12502
lthumb 12.8431 69.8837
rfemur -10.4825 13.8967 20.8043
rtibia 10.82
rfoot -3.76978 -16.8804
rtoes -19.5593
lfemur -14.3334 -16.4628 -14.165
ltibia 20.6534
lfoot -7.73786 20.7773
ltoes -14.0132
2229
root 0.177101 18.2357 0.472 9.52033 -3.06848 -2.92964
lowerback -6.32864 -0.0684144 2.32267
upperback -6.02015 -0.148003 2.59756
thorax -2.67045 -0.10494 1.37206
lowerneck -5.7896 0.0581665 3.52549
upperneck 16.5287 0.72602 -6.63326
head 5.96909 0.0780651 -2.6391
rclavicle 1.08835e-014 -9.54166e-015
rhumerus 30.1518 10.2556 -63.3915
rradius 68.5753
rwrist -36.2258
rhand -9.79251 -11.8955
rfingers 7.12502
rthumb 16.1835 -41.24
lclavicle 1.08835e-014 -9.54166e-015
lhumerus 30.4092 -16.8827 59.5034
lradius 67.1668
lwrist 51.5933
lhand -13.2781 40.3302
lfingers 7.12502
lthumb 12.8251 69.9163
rfemur -10.4155 13.9013 20.8745
rtibia 10.7581
rfoot -3.82544 -16.8443
rtoes -19.1673
lfemur -14.3246 -16.4235 -14.1184
ltibia 20.7228
lfoot -7.85192 20.7886
ltoes -14.0005
2230
root 0.177472 18.2351 0.471908 9.5253 -3.06543 -2.96952
lowerback -6.31299 -0.0645785 2.35398
upperback -6.03426 -0.142839 2.60606
thorax -2.69413 -0.103443 1.36369
lowerneck -5.80973 0.0576467 3.49338
upperneck 16.5102 0.724459 -6.61172
head 5.9667 0.0767825 -2.62675
rclavicle 5.61567e-015 -1.31198e-014
rhumerus 30.1387 10.2424 -63.3667
rradius 68.554
rwrist -36.2143
rhand -9.81878 -11.93
rfingers 7.12502
rthumb 16.1581 -41.2765
lclavicle 5.61567e-015 -1.31198e-014
lhumerus 30.3707 -16.9429 59.4297
lradius 67.1911
lwrist 51.6027
lhand -13.3603 40.3218
lfingers 7.12502
lthumb 12.7458 69.9128
rfemur -10.3948 13.8963 20.9173
rtibia 10.7084
rfoot -3.75506 -16.8349
rtoes -19.5531
lfemur -14.3569 -16.3715 -14.0807
ltibia 20.7787
lfoot -7.85267 20.7611
ltoes -14.1131
2231
root 0.178286 18.2349 0.471865 9.52483 -3.04258 -2.99963
lowerback -6.28269 -0.0789228 2.38581
upperback -6.05654 -0.160871 2.62203
thorax -2.73433 -0.113558 1.36199
lowerneck -5.8484 0.0528526 3.41413
upperneck 16.5652 0.72464 -6.5839
head 5.99065 0.0728139 -2.60544
rclavicle 1.93815e-015 -2.5842e-014
rhumerus 30.1158 10.2843 -63.3361
rradius 68.5238
rwrist -36.2243
rhand -9.93493 -11.9777
rfingers 7.12502
rthumb 16.0463 -41.3333
lclavicle 1.93815e-015 -2.5842e-014
lhumerus 30.3031 -16.9778 59.3593
lradius 67.2226
lwrist 51.6144
lhand -13.3742 40.3586
lfingers 7.12502
lthumb 12.7325 69.9504
rfemur -10.3805 13.8767 20.9534
rtibia 10.6959
rfoot -3.75235 -16.8472
rtoes -19.7131
lfemur -14.3764 -16.3634 -14.048
ltibia 20.8165
lfoot -7.96925 20.7282
ltoes -13.4523
2232
root 0.178836 18.2347 0.471966 9.51948 -3.05498 -3.02691
lowerback -6.2468 -0.0762882 2.40964
upperback -6.08477 -0.155653 2.62987
thorax -2.784 -0.111993 1.35734
lowerneck -5.84613 0.049558 3.39211
upperneck 16.6185 0.723267 -6.57179
head 6.00689 0.0711379 -2.59869
rclavicle 2.55935e-014 -1.03368e-014
rhumerus 30.061 10.3317 -63.289
rradius 68.5257
rwrist -36.2452
rhand -10.0121 -11.9889
rfingers 7.12502
rthumb 15.972 -41.3504
lclavicle 2.55935e-014 -1.03368e-014
lhumerus 30.2265 -17.0268 59.3225
lradius 67.2572
lwrist 51.6307
lhand -13.3893 40.3201
lfingers 7.12502
lthumb 12.7179 69.9128
rfemur -10.3918 13.8937 20.9839
rtibia 10.7273
rfoot -3.78564 -16.8683
rtoes -19.5057
lfemur -14.3737 -16.383 -14.0176
ltibia 20.8251
lfoot -8.00247 20.7263
ltoes -13.2818
2233
root 0.179029 18.2348 0.4719 9.50603 -3.07029 -2.95998
lowerback -6.24933 -0.0891224 2.31515
upperback -6.07266 -0.169903 2.61931
thorax -2.76921 -0.115847 1.39864
lowerneck -5.84311 0.0693734 3.37454
upperneck 16.5681 0.745693 -6.54328
head 5.99174 0.0836325 -2.58441
rclavicle 1.80397e-014 -7.196e-014
rhumerus 30.0833 10.3473 -63.2612
rradius 68.5404
rwrist -36.2532
rhand -9.95602 -11.9687
rfingers 7.12502
rthumb 16.026 -41.3259
lclavicle 1.80397e-014 -7.196e-014
lhumerus 30.2177 -17.0158 59.2895
lradius 67.2625
lwrist 51.6648
lhand -13.4743 40.3976
lfingers 7.12502
lthumb 12.636 69.9954
rfemur -10.3973 13.8664 20.9117
rtibia 10.7477
rfoot -3.96182 -16.837
rtoes -18.4962
lfemur -14.361 -16.4197 -14.0931
ltibia 20.8302
lfoot -7.92499 20.755
ltoes -13.607
